<?xml version="1.0" encoding="UTF-8" standalone="no"?>
<svg
   xmlns:svg="http://www.w3.org/2000/svg"
   xmlns="http://www.w3.org/2000/svg"
   viewBox="0 0 120.00002 31.53834"
   width="120.00002"
   height="31.53834">
  <path
     d="m 17.155567,13.69929 c -1.217153,0.45771 -2.686382,1.60928 -3.378681,2.80563 -0.941768,1.62745 -0.208868,3.66988 2.633229,3.234 -0.366553,0.36376 -0.919697,0.76619 -2.01906,1.28512 l 5.621829,0.0366 c -1.128919,-0.52316 -1.740867,-0.94523 -2.152042,-1.32774 2.8756,0.46157 3.619629,-1.59282 2.673406,-3.22797 -0.692299,-1.19635 -2.161527,-2.34792 -3.378681,-2.80563 z m -1.529385,2.72301 c 0.09793,0 0.183156,0.0104 0.255778,0.0313 0.07262,0.0209 0.132636,0.0511 0.17995,0.0907 0.04731,0.0396 0.08252,0.088 0.105631,0.14524 0.02311,0.0572 0.03452,0.12224 0.03452,0.19486 0,0.0704 -0.0098,0.13304 -0.02961,0.18806 -0.01871,0.0539 -0.04411,0.10132 -0.07602,0.14203 -0.03191,0.0407 -0.06973,0.0753 -0.113741,0.10394 -0.04291,0.0286 -0.08812,0.0522 -0.135435,0.0709 0.05062,0.0869 0.09903,0.16995 0.145243,0.24918 0.04731,0.0781 0.09472,0.14753 0.142036,0.20805 0.04731,0.0594 0.09513,0.10664 0.143545,0.14185 0.04841,0.0352 0.100035,0.0528 0.155051,0.0528 l 0.0166,0 0,0.0743 c -0.02421,0.009 -0.05502,0.016 -0.09243,0.0215 -0.03741,0.005 -0.07542,0.008 -0.11393,0.008 -0.05502,0 -0.101827,-0.007 -0.140339,-0.0215 -0.03851,-0.0154 -0.07633,-0.0434 -0.113741,-0.0841 -0.03631,-0.0418 -0.07592,-0.099 -0.118835,-0.17165 -0.04291,-0.0726 -0.09573,-0.16684 -0.158447,-0.28237 l -0.09413,-0.17165 -0.237669,0 0,0.713 -0.22937,0 0,-1.6867 c 0.06932,-0.005 0.145746,-0.01 0.22937,-0.0132 0.08362,-0.003 0.165645,-0.005 0.245969,-0.005 z m 1.555227,0 c 0.09793,0 0.183157,0.0104 0.255777,0.0313 0.07262,0.0209 0.132636,0.0511 0.179951,0.0907 0.04731,0.0396 0.08253,0.088 0.10563,0.14524 0.02311,0.0572 0.03471,0.12224 0.03471,0.19486 0,0.0704 -0.01,0.13304 -0.0298,0.18806 -0.0187,0.0539 -0.04392,0.10132 -0.07583,0.14203 -0.03191,0.0407 -0.06992,0.0753 -0.113931,0.10394 -0.04291,0.0286 -0.08812,0.0522 -0.135433,0.0709 0.05062,0.0869 0.09903,0.16995 0.145242,0.24918 0.04731,0.0781 0.09472,0.14753 0.142036,0.20805 0.04731,0.0594 0.09513,0.10664 0.143545,0.14185 0.04841,0.0352 0.100224,0.0528 0.15524,0.0528 l 0.01641,0 0,0.0743 c -0.02421,0.009 -0.05502,0.016 -0.09243,0.0215 -0.03741,0.005 -0.07542,0.008 -0.113931,0.008 -0.05502,0 -0.101638,-0.007 -0.140149,-0.0215 -0.03851,-0.0154 -0.07652,-0.0434 -0.113931,-0.0841 -0.03631,-0.0418 -0.07592,-0.099 -0.118835,-0.17165 -0.04291,-0.0726 -0.09573,-0.16684 -0.158446,-0.28237 l -0.09412,-0.17165 -0.23767,0 0,0.713 -0.22937,0 0,-1.6867 c 0.06932,-0.005 0.145745,-0.01 0.22937,-0.0132 0.08362,-0.003 0.165646,-0.005 0.245969,-0.005 z m 1.555227,0.005 c 0.09793,0 0.183345,0.011 0.255966,0.033 0.07262,0.022 0.132448,0.0534 0.179762,0.0941 0.04731,0.0396 0.08252,0.0884 0.10563,0.14675 0.02311,0.0572 0.03471,0.12223 0.03471,0.19485 0,0.0759 -0.0138,0.14694 -0.04131,0.21296 -0.02751,0.066 -0.07033,0.12324 -0.128643,0.17165 -0.05722,0.0484 -0.130435,0.0868 -0.219562,0.11544 -0.08802,0.0275 -0.193059,0.0413 -0.315194,0.0413 l -0.0149,0 -0.0132,-0.0726 0.04791,-0.008 c 0.05942,-0.01 0.11544,-0.0225 0.168256,-0.0379 0.05392,-0.0165 0.100726,-0.0407 0.140337,-0.0726 0.03961,-0.0319 0.07102,-0.0743 0.09413,-0.12713 0.02421,-0.0539 0.03622,-0.12374 0.03622,-0.20957 0,-0.0638 -0.0098,-0.11883 -0.02961,-0.16505 -0.01981,-0.0462 -0.04741,-0.0842 -0.08262,-0.11393 -0.03521,-0.0297 -0.07803,-0.0517 -0.128644,-0.066 -0.05062,-0.0143 -0.106228,-0.0215 -0.166745,-0.0215 -0.03191,0 -0.05932,0.001 -0.08243,0.003 -0.02311,0.001 -0.05172,0.003 -0.08582,0.007 l 0,1.57446 -0.229558,0 0,-1.68179 c 0.06932,-0.006 0.145933,-0.01 0.229558,-0.0132 0.08362,-0.003 0.165458,-0.005 0.245781,-0.005 z m -3.188168,0.11053 c -0.03191,0 -0.05932,0.001 -0.08243,0.003 -0.02311,0.001 -0.05172,0.003 -0.08582,0.007 l 0,0.74922 0.07092,0 c 0.103431,0 0.187054,-0.006 0.250873,-0.0181 0.06492,-0.0121 0.114528,-0.0291 0.148638,-0.0511 0.0154,-0.01 0.02961,-0.0231 0.04282,-0.0396 0.0132,-0.0165 0.02421,-0.0375 0.03301,-0.0628 0.0099,-0.0264 0.0171,-0.0578 0.0215,-0.0941 0.0055,-0.0374 0.0083,-0.0818 0.0083,-0.13355 0,-0.0649 -0.0094,-0.11993 -0.02811,-0.16505 -0.0187,-0.0462 -0.04571,-0.0836 -0.08092,-0.11223 -0.03521,-0.0286 -0.07803,-0.0496 -0.128644,-0.0628 -0.04951,-0.0132 -0.106321,-0.0198 -0.170141,-0.0198 z m 1.555415,0 c -0.03191,0 -0.05951,0.001 -0.08262,0.003 -0.02311,0.001 -0.05172,0.003 -0.08582,0.007 l 0,0.74922 0.07092,0 c 0.103334,-10e-6 0.187097,-0.006 0.250873,-0.0181 0.06492,-0.0121 0.114527,-0.0291 0.148638,-0.0511 0.0154,-0.01 0.02961,-0.0231 0.04282,-0.0396 0.0132,-0.0165 0.02421,-0.0375 0.03301,-0.0628 0.0099,-0.0264 0.0171,-0.0578 0.0215,-0.0941 0.0055,-0.0374 0.0083,-0.0818 0.0083,-0.13355 1e-6,-0.0649 -0.0094,-0.11994 -0.0281,-0.16505 -0.01871,-0.0462 -0.04552,-0.0836 -0.08073,-0.11223 -0.03521,-0.0286 -0.07822,-0.0496 -0.128832,-0.0628 -0.04951,-0.0132 -0.106134,-0.0198 -0.169953,-0.0198 z"
     style="fill:#ff3040;fill-opacity:1;fill-rule:evenodd;stroke:none;stroke-width:1px;stroke-linecap:butt;stroke-linejoin:miter;stroke-opacity:1"
     />
  <path
     style="fill:#ff3040;fill-opacity:1;fill-rule:evenodd;stroke:none;stroke-width:1px;stroke-linecap:butt;stroke-linejoin:miter;stroke-opacity:1"
     d="m 12.822987,7.00002 c 0.225696,0.78994 0.63363,2.68081 2.441772,3.53336 C 12.153297,11.4 10.003089,14.20388 10,17.39863 c 4.5e-5,3.94319 3.234601,7.13974 7.22459,7.13971 3.989989,3e-5 7.224544,-3.19652 7.22459,-7.13971 -0.0033,-3.13119 -2.070665,-5.89488 -5.098767,-6.81621 0,0 -0.161669,-0.0352 -0.1924,-0.0419 C 20.927688,9.67715 21.402456,7.78308 21.626193,7 20.744583,7.30903 20.380608,10.13881 17.139638,10.15252 13.898669,10.16622 13.709656,7.31081 12.822987,7 Z m 4.401603,4.34521 c 3.382844,3e-5 6.125146,2.71024 6.125086,6.0534 -4.6e-5,3.34309 -2.742318,6.05319 -6.125086,6.05322 -3.382842,7e-5 -6.125229,-2.71006 -6.125274,-6.05322 -6.1e-5,-3.34323 2.742357,-6.05347 6.125274,-6.0534 z"
  />
  <path
     d="m 28.376005,15.65054 -1.292215,0 0,3.87664 -1.247346,0 0,-9.17114 q 0.565343,-0.0449 1.247346,-0.0718 0.682002,-0.0269 1.337084,-0.0269 0.798661,0 1.390926,0.1705 0.592265,0.17051 0.978135,0.49356 0.38587,0.32305 0.574319,0.78969 0.188447,0.46663 0.188447,1.05889 0,0.57432 -0.161527,1.02301 -0.152553,0.43971 -0.41279,0.77174 -0.260238,0.33203 -0.619187,0.56534 -0.349976,0.23332 -0.735846,0.38587 0.412792,0.70893 0.789688,1.35503 0.38587,0.63714 0.77174,1.13069 0.38587,0.48458 0.780713,0.77174 0.394844,0.28716 0.84353,0.28716 l 0.08974,0 0,0.40382 q -0.197421,0.0718 -0.502528,0.11666 -0.305106,0.0449 -0.619186,0.0449 -0.448686,0 -0.762766,-0.11665 -0.31408,-0.12564 -0.619187,-0.45766 -0.296132,-0.341 -0.646107,-0.93327 -0.349975,-0.59226 -0.861477,-1.53451 L 28.376009,15.65059 Z M 27.46966,15.0134 q 0.843529,0 1.364005,-0.0987 0.529449,-0.0987 0.807634,-0.27818 0.125632,-0.0808 0.233317,-0.21537 0.107685,-0.13461 0.179474,-0.341 0.08076,-0.21537 0.116659,-0.5115 0.04487,-0.30511 0.04487,-0.72688 0,-0.52945 -0.152554,-0.89737 -0.152553,-0.37689 -0.439713,-0.61021 -0.287158,-0.23332 -0.699949,-0.341 -0.403818,-0.10769 -0.924293,-0.10769 -0.260238,0 -0.448686,0.018 -0.188448,0.009 -0.466633,0.0359 l 0,4.07406 0.38587,0 z"
     style="font-style:normal;font-variant:normal;font-weight:normal;font-stretch:normal;font-size:190.2958374px;line-height:125%;font-family:'Sakkal Majalla';-inkscape-font-specification:'Sakkal Majalla';letter-spacing:0px;word-spacing:0px;fill:#ff3040;fill-opacity:1;stroke:none;stroke-width:1px;stroke-linecap:butt;stroke-linejoin:miter;stroke-opacity:1"
     />
  <path
     d="m 36.416456,13.25456 q 0.403817,0 0.789687,0.11665 0.38587,0.11666 0.69995,0.39485 0.323054,0.26921 0.55637,0.72687 0.242291,0.44868 0.358949,1.12171 l 0,0.0718 q -0.08076,0.0987 -0.224343,0.17948 -0.134606,0.0808 -0.358948,0.14358 -0.224343,0.0628 -0.556371,0.11666 -0.323054,0.0449 -0.780714,0.0718 l -1.992165,0.13461 0,0.38587 q 0,1.08582 0.38587,1.57937 0.38587,0.49356 1.166584,0.49356 0.323053,0 0.664055,-0.0628 0.349975,-0.0628 0.664054,-0.15255 0.314081,-0.0897 0.565345,-0.17947 0.260238,-0.0987 0.403817,-0.17051 l 0.152553,0.34998 q -0.260238,0.1705 -0.583291,0.35895 -0.323054,0.18845 -0.69995,0.34997 -0.367922,0.15256 -0.780714,0.25127 -0.403817,0.10768 -0.834556,0.10768 -0.511501,0 -0.951214,-0.16152 -0.430738,-0.16153 -0.753792,-0.52048 -0.323053,-0.35895 -0.511502,-0.93327 -0.179474,-0.58329 -0.179474,-1.40887 0,-0.92429 0.215369,-1.5704 0.215369,-0.64611 0.592265,-1.04095 0.376897,-0.39485 0.888399,-0.57432 0.511502,-0.17947 1.103767,-0.17947 z m -1.014031,0.88839 q -0.09871,0.0718 -0.188447,0.23332 -0.08076,0.15255 -0.14358,0.3769 -0.06282,0.21537 -0.107684,0.4756 -0.0359,0.26024 -0.0359,0.52945 l 2.566483,-0.10768 q -0.04487,-0.30511 -0.134606,-0.61021 -0.08076,-0.31409 -0.233316,-0.55638 -0.14358,-0.24229 -0.367922,-0.39484 -0.224344,-0.15255 -0.547398,-0.15255 -0.215369,0 -0.430738,0.0449 -0.206396,0.0449 -0.376897,0.16152 z"
     style="font-style:normal;font-variant:normal;font-weight:normal;font-stretch:normal;font-size:190.2958374px;line-height:125%;font-family:'Sakkal Majalla';-inkscape-font-specification:'Sakkal Majalla';letter-spacing:0px;word-spacing:0px;fill:#ff3040;fill-opacity:1;stroke:none;stroke-width:1px;stroke-linecap:butt;stroke-linejoin:miter;stroke-opacity:1"
      />
  <path
     d="m 44.5287,13.37121 q -0.009,-0.1346 -0.009,-0.26921 -0.009,-0.10768 -0.009,-0.22434 0,-0.12563 0,-0.19742 l 0,-3.22157 1.20248,-0.3051 0,10.37361 -0.79866,0 -0.33203,-0.57431 -0.0269,0 q -0.18845,0.1346 -0.39484,0.26023 -0.2064,0.11666 -0.43074,0.21537 -0.21537,0.0987 -0.46663,0.15256 -0.25127,0.0628 -0.52945,0.0628 -0.50253,0 -0.96916,-0.16152 -0.46664,-0.16153 -0.82559,-0.52048 -0.35894,-0.35895 -0.57431,-0.93327 -0.21537,-0.58329 -0.21537,-1.40887 0,-0.78969 0.20639,-1.41785 0.21537,-0.62816 0.61022,-1.0589 0.40381,-0.43074 0.96916,-0.65508 0.57431,-0.23331 1.29221,-0.23331 0.28716,0 0.62816,0.0359 0.341,0.0359 0.67303,0.0808 z m -3.09593,3.1767 q 0,0.61021 0.11665,1.04095 0.12564,0.43074 0.34998,0.70892 0.22434,0.27819 0.53842,0.40382 0.31408,0.12563 0.69098,0.12563 0.37689,0 0.73584,-0.0718 0.35895,-0.0808 0.63714,-0.19742 l 0,-4.5407 q -0.28716,-0.0449 -0.55637,-0.0628 -0.26024,-0.0269 -0.56535,-0.0269 -0.43074,0 -0.79866,0.0718 -0.35895,0.0718 -0.55637,0.23332 -0.0987,0.0897 -0.20639,0.26921 -0.0987,0.17948 -0.18845,0.46664 -0.0897,0.27818 -0.14358,0.67302 -0.0538,0.39485 -0.0538,0.90635 z"
     style="font-style:normal;font-variant:normal;font-weight:normal;font-stretch:normal;font-size:190.2958374px;line-height:125%;font-family:'Sakkal Majalla';-inkscape-font-specification:'Sakkal Majalla';letter-spacing:0px;word-spacing:0px;fill:#ff3040;fill-opacity:1;stroke:none;stroke-width:1px;stroke-linecap:butt;stroke-linejoin:miter;stroke-opacity:1"
     />
  <path
     d="m 50.48724,15.65054 -1.29221,0 0,3.87664 -1.24735,0 0,-9.17114 q 0.56535,-0.0449 1.24735,-0.0718 0.682,-0.0269 1.33708,-0.0269 0.79866,0 1.39093,0.1705 0.59226,0.17051 0.97813,0.49356 0.38587,0.32305 0.57432,0.78969 0.18845,0.46663 0.18845,1.05889 0,0.57432 -0.16153,1.02301 -0.15255,0.43971 -0.41279,0.77174 -0.26024,0.33203 -0.61918,0.56534 -0.34998,0.23332 -0.73585,0.38587 0.41279,0.70893 0.78969,1.35503 0.38587,0.63714 0.77174,1.13069 0.38587,0.48458 0.78071,0.77174 0.39485,0.28716 0.84353,0.28716 l 0.0897,0 0,0.40382 q -0.19742,0.0718 -0.50253,0.11666 -0.30511,0.0449 -0.61919,0.0449 -0.44868,0 -0.76276,-0.11665 -0.31408,-0.12564 -0.61919,-0.45766 -0.29613,-0.341 -0.64611,-0.93327 -0.34997,-0.59226 -0.86147,-1.53451 L 50.4872,15.65059 Z M 49.5809,15.0134 q 0.84353,0 1.364,-0.0987 0.52945,-0.0987 0.80764,-0.27818 0.12563,-0.0808 0.23332,-0.21537 0.10768,-0.13461 0.17947,-0.341 0.0808,-0.21537 0.11666,-0.5115 0.0449,-0.30511 0.0449,-0.72688 0,-0.52945 -0.15256,-0.89737 -0.15255,-0.37689 -0.43971,-0.61021 -0.28716,-0.23332 -0.69995,-0.341 -0.40382,-0.10769 -0.92429,-0.10769 -0.26024,0 -0.44869,0.018 -0.18845,0.009 -0.46663,0.0359 l 0,4.07406 0.38587,0 z"
     style="font-style:normal;font-variant:normal;font-weight:normal;font-stretch:normal;font-size:190.2958374px;line-height:125%;font-family:'Sakkal Majalla';-inkscape-font-specification:'Sakkal Majalla';letter-spacing:0px;word-spacing:0px;fill:#ffffff;fill-opacity:1;stroke:none;stroke-width:1px;stroke-linecap:butt;stroke-linejoin:miter;stroke-opacity:1"
     />
  <path
     d="m 57.2624,13.38916 0,4.27149 q 0,0.21537 0.0359,0.43074 0.0359,0.20639 0.14358,0.37689 0.11665,0.16153 0.32305,0.26922 0.2064,0.10768 0.55637,0.10768 0.22434,0 0.47561,-0.0538 0.26024,-0.0538 0.52047,-0.13461 0.26024,-0.0808 0.50253,-0.18845 0.24229,-0.10768 0.43971,-0.21536 l 0,-4.86376 1.21146,0 0,6.13802 -1.01403,0 -0.17948,-0.71789 q -0.20639,0.11666 -0.48458,0.26921 -0.26921,0.14358 -0.59227,0.27818 -0.31407,0.12564 -0.65508,0.21537 -0.341,0.0897 -0.69097,0.0897 -0.39485,0 -0.72687,-0.11666 -0.33203,-0.10768 -0.57432,-0.33203 -0.23332,-0.23331 -0.36792,-0.56534 -0.13461,-0.341 -0.13461,-0.79866 l 0,-4.45994 1.21145,0 z"
     style="font-style:normal;font-variant:normal;font-weight:normal;font-stretch:normal;font-size:190.2958374px;line-height:125%;font-family:'Sakkal Majalla';-inkscape-font-specification:'Sakkal Majalla';letter-spacing:0px;word-spacing:0px;fill:#ffffff;fill-opacity:1;stroke:none;stroke-width:1px;stroke-linecap:butt;stroke-linejoin:miter;stroke-opacity:1"
    />
  <path
     d="m 67.59115,19.52718 0,-4.27149 q 0,-0.21536 -0.0359,-0.42176 -0.0269,-0.21537 -0.13461,-0.3769 -0.0987,-0.1705 -0.28716,-0.27818 -0.18845,-0.10769 -0.50253,-0.10769 -0.20639,0 -0.43971,0.0538 -0.23332,0.0538 -0.46663,0.1346 -0.23332,0.0808 -0.45766,0.18845 -0.22434,0.10768 -0.40382,0.21537 l 0,4.86375 -1.21145,0 0,-6.13802 1.01403,0 0.17947,0.7179 q 0.18845,-0.11666 0.43972,-0.26024 0.26023,-0.15255 0.55637,-0.27818 0.29613,-0.13461 0.61918,-0.22435 0.33203,-0.0897 0.65508,-0.0897 0.52945,0 0.9243,0.23331 0.40381,0.23332 0.60124,0.70893 l 0.14358,-0.0897 q 0.18844,-0.11666 0.43971,-0.26024 0.26023,-0.15255 0.55637,-0.27818 0.29613,-0.13461 0.61918,-0.22435 0.33203,-0.0897 0.65509,-0.0897 0.36792,0 0.67302,0.11665 0.31408,0.10769 0.53843,0.341 0.22434,0.22435 0.34997,0.56535 0.12563,0.33203 0.12563,0.78969 l 0,4.45993 -1.21145,0 0,-4.27149 q 0,-0.21536 -0.0359,-0.42176 -0.0269,-0.21537 -0.13461,-0.3769 -0.0987,-0.1705 -0.28716,-0.27818 -0.18845,-0.10769 -0.50252,-0.10769 -0.2064,0 -0.44869,0.0628 -0.23332,0.0538 -0.47561,0.14358 -0.23331,0.0808 -0.46663,0.18845 -0.22434,0.10768 -0.40382,0.21537 0.0269,0.18844 0.0269,0.38587 l 0,4.45993 -1.21145,0 z"
     style="font-style:normal;font-variant:normal;font-weight:normal;font-stretch:normal;font-size:190.2958374px;line-height:125%;font-family:'Sakkal Majalla';-inkscape-font-specification:'Sakkal Majalla';letter-spacing:0px;word-spacing:0px;fill:#ffffff;fill-opacity:1;stroke:none;stroke-width:1px;stroke-linecap:butt;stroke-linejoin:miter;stroke-opacity:1"
 />
  <path
     d="m 80.69182,15.38133 0.26024,-0.0449 q 0.48458,-0.0808 0.91532,-0.2064 0.43971,-0.1346 0.76276,-0.39484 0.32306,-0.26024 0.5115,-0.69098 0.19743,-0.43971 0.19743,-1.13966 0,-0.52047 -0.16153,-0.89737 -0.16153,-0.3769 -0.44869,-0.61919 -0.28716,-0.24229 -0.69995,-0.35895 -0.41279,-0.11665 -0.90634,-0.11665 -0.26024,0 -0.44869,0.0179 -0.18845,0.009 -0.46663,0.0359 l 0,8.56092 -1.24735,0 0,-9.14421 q 0.56535,-0.0449 1.24735,-0.0718 0.682,-0.0269 1.33708,-0.0269 0.79866,0 1.39093,0.17947 0.59226,0.17947 0.97813,0.5115 0.38587,0.32305 0.57432,0.79866 0.18845,0.46664 0.18845,1.0589 0,0.61919 -0.22434,1.15761 -0.22435,0.53842 -0.69995,0.93327 -0.46664,0.39484 -1.19351,0.62816 -0.71789,0.22434 -1.71398,0.22434 l -0.0808,0 -0.0718,-0.39484 z"
     style="font-style:normal;font-variant:normal;font-weight:normal;font-stretch:normal;font-size:190.2958374px;line-height:125%;font-family:'Sakkal Majalla';-inkscape-font-specification:'Sakkal Majalla';letter-spacing:0px;word-spacing:0px;fill:#ffffff;fill-opacity:1;stroke:none;stroke-width:1px;stroke-linecap:butt;stroke-linejoin:miter;stroke-opacity:1"
 />
  <path
     d="m 88.67843,19.64384 q -1.44477,0 -2.21651,-0.80763 -0.76277,-0.81661 -0.76277,-2.37804 0,-0.73584 0.18845,-1.32811 0.18845,-0.60124 0.56534,-1.01403 0.3769,-0.41279 0.93327,-0.63713 0.55637,-0.22434 1.29222,-0.22434 0.72687,0 1.28324,0.21536 0.55637,0.2064 0.93326,0.61919 0.3769,0.40382 0.56535,0.99608 0.18845,0.59227 0.18845,1.35504 0,0.74481 -0.18845,1.33708 -0.18845,0.59226 -0.56535,1.01403 -0.37689,0.41279 -0.93326,0.63713 -0.55637,0.21537 -1.28324,0.21537 z M 86.98239,16.4492 q 0,0.67303 0.0897,1.14863 0.0987,0.47561 0.29613,0.78072 0.2064,0.3051 0.52048,0.44868 0.32305,0.14358 0.77174,0.14358 0.36792,0 0.63713,-0.0718 0.26921,-0.0718 0.53843,-0.26921 0.31408,-0.23331 0.42176,-0.80763 0.10768,-0.58329 0.10768,-1.36401 0,-1.31016 -0.40381,-1.9114 -0.39485,-0.61021 -1.2653,-0.61021 -0.35895,0 -0.6461,0.0718 -0.27819,0.0718 -0.52945,0.25126 -0.15256,0.10769 -0.25127,0.33203 -0.0987,0.21537 -0.1705,0.5115 -0.0628,0.28716 -0.0897,0.63714 -0.0269,0.34997 -0.0269,0.70892 z"
     style="font-style:normal;font-variant:normal;font-weight:normal;font-stretch:normal;font-size:190.2958374px;line-height:125%;font-family:'Sakkal Majalla';-inkscape-font-specification:'Sakkal Majalla';letter-spacing:0px;word-spacing:0px;fill:#ffffff;fill-opacity:1;stroke:none;stroke-width:1px;stroke-linecap:butt;stroke-linejoin:miter;stroke-opacity:1"
   />
  <path
     d="m 94.65492,19.52718 -1.21145,0 0,-10.06851 1.21145,-0.3051 0,6.12007 q 0,0.0628 0,0.17948 0,0.10768 -0.009,0.23331 0,0.11666 -0.009,0.22435 0,0.10768 0,0.16152 0.24229,-0.27818 0.52047,-0.58329 0.28716,-0.31408 0.55637,-0.61021 0.27819,-0.29613 0.52048,-0.5474 0.25126,-0.26024 0.43074,-0.43074 0.29613,-0.27818 0.55637,-0.43074 0.26921,-0.15255 0.682,-0.15255 0.13461,0 0.30511,0.018 0.17947,0.0179 0.26024,0.0628 l 0,0.37689 -0.0359,0 q -0.19742,0 -0.36792,0.0449 -0.16153,0.0359 -0.32305,0.11666 -0.15256,0.0808 -0.31409,0.20639 -0.16152,0.12564 -0.34997,0.29614 -0.0897,0.0808 -0.26921,0.26023 -0.17948,0.17948 -0.35895,0.36793 -0.21537,0.22434 -0.45766,0.46663 0.15255,0.24229 0.341,0.60124 0.18845,0.34997 0.40382,0.74482 0.22434,0.39484 0.46663,0.78071 0.25127,0.38587 0.52048,0.69995 0.27818,0.31408 0.56534,0.5115 0.29613,0.18845 0.61022,0.18845 l 0.0897,0 0,0.40382 q -0.19742,0.0718 -0.46663,0.11666 -0.26921,0.0449 -0.52048,0.0449 -0.48458,0 -0.8525,-0.28715 -0.36792,-0.29614 -0.69098,-0.76277 -0.32305,-0.46663 -0.62816,-1.04992 -0.3051,-0.59227 -0.66405,-1.17556 l -0.5115,0.5115 0,2.66519 z"
     style="font-style:normal;font-variant:normal;font-weight:normal;font-stretch:normal;font-size:190.2958374px;line-height:125%;font-family:'Sakkal Majalla';-inkscape-font-specification:'Sakkal Majalla';letter-spacing:0px;word-spacing:0px;fill:#ffffff;fill-opacity:1;stroke:none;stroke-width:1px;stroke-linecap:butt;stroke-linejoin:miter;stroke-opacity:1"
 />
  <path
     d="m 102.53385,13.25456 q 0.40381,0 0.78969,0.11665 0.38587,0.11666 0.69995,0.39485 0.32305,0.26921 0.55637,0.72687 0.24229,0.44868 0.35894,1.12171 l 0,0.0718 q -0.0807,0.0987 -0.22434,0.17948 -0.1346,0.0808 -0.35894,0.14358 -0.22435,0.0628 -0.55638,0.11666 -0.32305,0.0449 -0.78071,0.0718 l -1.99217,0.13461 0,0.38587 q 0,1.08582 0.38588,1.57937 0.38587,0.49356 1.16658,0.49356 0.32306,0 0.66405,-0.0628 0.34997,-0.0628 0.66406,-0.15255 0.31408,-0.0897 0.56534,-0.17947 0.26024,-0.0987 0.40382,-0.17051 l 0.15255,0.34998 q -0.26023,0.1705 -0.58329,0.35895 -0.32305,0.18845 -0.69995,0.34997 -0.36792,0.15256 -0.78071,0.25127 -0.40382,0.10768 -0.83456,0.10768 -0.5115,0 -0.95121,-0.16152 -0.43074,-0.16153 -0.7538,-0.52048 -0.32305,-0.35895 -0.5115,-0.93327 -0.17948,-0.58329 -0.17948,-1.40887 0,-0.92429 0.21538,-1.5704 0.21537,-0.64611 0.59227,-1.04095 0.37689,-0.39485 0.88839,-0.57432 0.5115,-0.17947 1.10377,-0.17947 z m -1.01403,0.88839 q -0.0987,0.0718 -0.18845,0.23332 -0.0808,0.15255 -0.14358,0.3769 -0.0628,0.21537 -0.10769,0.4756 -0.0359,0.26024 -0.0359,0.52945 l 2.56648,-0.10768 q -0.0449,-0.30511 -0.13461,-0.61021 -0.0808,-0.31409 -0.23332,-0.55638 -0.14357,-0.24229 -0.36792,-0.39484 -0.22434,-0.15255 -0.5474,-0.15255 -0.21536,0 -0.43073,0.0449 -0.2064,0.0449 -0.3769,0.16152 z"
     style="font-style:normal;font-variant:normal;font-weight:normal;font-stretch:normal;font-size:190.2958374px;line-height:125%;font-family:'Sakkal Majalla';-inkscape-font-specification:'Sakkal Majalla';letter-spacing:0px;word-spacing:0px;fill:#ffffff;fill-opacity:1;stroke:none;stroke-width:1px;stroke-linecap:butt;stroke-linejoin:miter;stroke-opacity:1"
 />
  <path
     d="m 109.82051,14.35832 q -0.20639,-0.0179 -0.46663,-0.0359 -0.26023,-0.0269 -0.49355,-0.0269 -0.17051,0 -0.29614,0.0359 -0.11665,0.0359 -0.23332,0.11666 -0.10768,0.0718 -0.21536,0.17947 -0.10769,0.0987 -0.25127,0.23332 l 0,4.66633 -1.21145,0 0,-6.13802 1.01403,0 0.1705,0.96019 0.009,0 q 0.0987,-0.11666 0.2064,-0.25127 0.10768,-0.14357 0.21537,-0.26921 0.11665,-0.12563 0.24229,-0.23331 0.12563,-0.10769 0.26921,-0.1705 0.24229,-0.10769 0.5474,-0.13461 0.3051,-0.0359 0.67303,-0.0359 l -0.17948,1.10376 z"
     style="font-style:normal;font-variant:normal;font-weight:normal;font-stretch:normal;font-size:190.2958374px;line-height:125%;font-family:'Sakkal Majalla';-inkscape-font-specification:'Sakkal Majalla';letter-spacing:0px;word-spacing:0px;fill:#ffffff;fill-opacity:1;stroke:none;stroke-width:1px;stroke-linecap:butt;stroke-linejoin:miter;stroke-opacity:1"
/>
  <path
     id="path4261"
     style="fill:#ffffff;fill-opacity:1;fill-rule:evenodd;stroke:none;stroke-width:1px;stroke-linecap:butt;stroke-linejoin:miter;stroke-opacity:1"
     d="m 15.626182,16.4223 c 0.09793,0 0.183156,0.0104 0.255778,0.0313 0.07262,0.0209 0.132636,0.0511 0.17995,0.0907 0.04731,0.0396 0.08252,0.088 0.105631,0.14524 0.02311,0.0572 0.03452,0.12224 0.03452,0.19486 0,0.0704 -0.0098,0.13304 -0.02961,0.18806 -0.01871,0.0539 -0.04411,0.10132 -0.07602,0.14203 -0.03191,0.0407 -0.06973,0.0753 -0.113741,0.10394 -0.04291,0.0286 -0.08812,0.0522 -0.135435,0.0709 0.05062,0.0869 0.09903,0.16995 0.145243,0.24918 0.04731,0.0781 0.09472,0.14753 0.142036,0.20805 0.04731,0.0594 0.09513,0.10664 0.143545,0.14185 0.04841,0.0352 0.100035,0.0528 0.155051,0.0528 l 0.0166,0 0,0.0743 c -0.02421,0.009 -0.05502,0.016 -0.09243,0.0215 -0.03741,0.005 -0.07542,0.008 -0.11393,0.008 -0.05502,0 -0.101827,-0.007 -0.140339,-0.0215 -0.03851,-0.0154 -0.07633,-0.0434 -0.113741,-0.0841 -0.03631,-0.0418 -0.07592,-0.099 -0.118835,-0.17165 -0.04291,-0.0726 -0.09573,-0.16684 -0.158447,-0.28237 l -0.09413,-0.17165 -0.237669,0 0,0.713 -0.22937,0 0,-1.6867 c 0.06932,-0.005 0.145746,-0.01 0.22937,-0.0132 0.08362,-0.003 0.165645,-0.005 0.245969,-0.005 z m 1.555227,0 c 0.09793,0 0.183157,0.0104 0.255777,0.0313 0.07262,0.0209 0.132636,0.0511 0.179951,0.0907 0.04731,0.0396 0.08253,0.088 0.10563,0.14524 0.02311,0.0572 0.03471,0.12224 0.03471,0.19486 0,0.0704 -0.01,0.13304 -0.0298,0.18806 -0.0187,0.0539 -0.04392,0.10132 -0.07583,0.14203 -0.03191,0.0407 -0.06992,0.0753 -0.113931,0.10394 -0.04291,0.0286 -0.08812,0.0522 -0.135433,0.0709 0.05062,0.0869 0.09903,0.16995 0.145242,0.24918 0.04731,0.0781 0.09472,0.14753 0.142036,0.20805 0.04731,0.0594 0.09513,0.10664 0.143545,0.14185 0.04841,0.0352 0.100224,0.0528 0.15524,0.0528 l 0.01641,0 0,0.0743 c -0.02421,0.009 -0.05502,0.016 -0.09243,0.0215 -0.03741,0.005 -0.07542,0.008 -0.113931,0.008 -0.05502,0 -0.101638,-0.007 -0.140149,-0.0215 -0.03851,-0.0154 -0.07652,-0.0434 -0.113931,-0.0841 -0.03631,-0.0418 -0.07592,-0.099 -0.118835,-0.17165 -0.04291,-0.0726 -0.09573,-0.16684 -0.158446,-0.28237 l -0.09412,-0.17165 -0.23767,0 0,0.713 -0.22937,0 0,-1.6867 c 0.06932,-0.005 0.145745,-0.01 0.22937,-0.0132 0.08362,-0.003 0.165646,-0.005 0.245969,-0.005 z m 1.555227,0.005 c 0.09793,0 0.183345,0.011 0.255966,0.033 0.07262,0.022 0.132448,0.0534 0.179762,0.0941 0.04731,0.0396 0.08252,0.0884 0.10563,0.14675 0.02311,0.0572 0.03471,0.12223 0.03471,0.19485 0,0.0759 -0.0138,0.14694 -0.04131,0.21296 -0.02751,0.066 -0.07033,0.12324 -0.128643,0.17165 -0.05722,0.0484 -0.130435,0.0868 -0.219562,0.11544 -0.08802,0.0275 -0.193059,0.0413 -0.315194,0.0413 l -0.0149,0 -0.0132,-0.0726 0.04791,-0.008 c 0.05942,-0.01 0.11544,-0.0225 0.168256,-0.0379 0.05392,-0.0165 0.100726,-0.0407 0.140337,-0.0726 0.03961,-0.0319 0.07102,-0.0743 0.09413,-0.12713 0.02421,-0.0539 0.03622,-0.12374 0.03622,-0.20957 0,-0.0638 -0.0098,-0.11883 -0.02961,-0.16505 -0.01981,-0.0462 -0.04741,-0.0842 -0.08262,-0.11393 -0.03521,-0.0297 -0.07803,-0.0517 -0.128644,-0.066 -0.05062,-0.0143 -0.106228,-0.0215 -0.166745,-0.0215 -0.03191,0 -0.05932,0.001 -0.08243,0.003 -0.02311,0.001 -0.05172,0.003 -0.08582,0.007 l 0,1.57446 -0.229558,0 0,-1.68179 c 0.06932,-0.006 0.145933,-0.01 0.229558,-0.0132 0.08362,-0.003 0.165458,-0.005 0.245781,-0.005 z m -3.188168,0.11053 c -0.03191,0 -0.05932,0.001 -0.08243,0.003 -0.02311,0.001 -0.05172,0.003 -0.08582,0.007 l 0,0.74922 0.07092,0 c 0.103431,0 0.187054,-0.006 0.250873,-0.0181 0.06492,-0.0121 0.114528,-0.0291 0.148638,-0.0511 0.0154,-0.01 0.02961,-0.0231 0.04282,-0.0396 0.0132,-0.0165 0.02421,-0.0375 0.03301,-0.0628 0.0099,-0.0264 0.0171,-0.0578 0.0215,-0.0941 0.0055,-0.0374 0.0083,-0.0818 0.0083,-0.13355 0,-0.0649 -0.0094,-0.11993 -0.02811,-0.16505 -0.0187,-0.0462 -0.04571,-0.0836 -0.08092,-0.11223 -0.03521,-0.0286 -0.07803,-0.0496 -0.128644,-0.0628 -0.04951,-0.0132 -0.106321,-0.0198 -0.170141,-0.0198 z m 1.555415,0 c -0.03191,0 -0.05951,0.001 -0.08262,0.003 -0.02311,0.001 -0.05172,0.003 -0.08582,0.007 l 0,0.74922 0.07092,0 c 0.103334,-10e-6 0.187097,-0.006 0.250873,-0.0181 0.06492,-0.0121 0.114527,-0.0291 0.148638,-0.0511 0.0154,-0.01 0.02961,-0.0231 0.04282,-0.0396 0.0132,-0.0165 0.02421,-0.0375 0.03301,-0.0628 0.0099,-0.0264 0.0171,-0.0578 0.0215,-0.0941 0.0055,-0.0374 0.0083,-0.0818 0.0083,-0.13355 1e-6,-0.0649 -0.0094,-0.11994 -0.0281,-0.16505 -0.01871,-0.0462 -0.04552,-0.0836 -0.08073,-0.11223 -0.03521,-0.0286 -0.07822,-0.0496 -0.128832,-0.0628 -0.04951,-0.0132 -0.106134,-0.0198 -0.169953,-0.0198 z"
  />
</svg>
