<svg
  xmlns="http://www.w3.org/2000/svg"
  width="24"
  height="24"
  viewBox="0 0 6.3499999 6.3500002">
  <path fill="#FFF"
        d="M 3.1899862,0.3141927 2.1704101,1.7725016 0.31160889,1.372526 1.0991577,2.6504841 c 0,0 1.2274282,-0.2803612 2.0908285,-0.2713012 0.7441208,0.008 2.2071005,0.3358969 2.2071005,0.3358969 L 6.2874715,1.2691732 4.2095621,1.7466634 Z M 3.5315673,2.815332 C 3.4298374,2.8175413 3.2119181,2.8399562 3.0943846,2.9827638 2.6274804,3.5500437 2.5698689,5.8570068 2.5698689,5.8570068 L 3.2861043,5.5459148 3.5868612,2.8163655 c 0,0 -0.021384,-0.00177 -0.055294,-0.00103 z M 4.3542561,3.0204875 3.6948649,5.8812948 4.1837239,5.7712239 4.319633,5.1821127 c 0.070101,0.06066 0.1407054,0.1111118 0.2118733,0.1514118 0.070892,0.0415 0.1607843,0.075052 0.2702679,0.1002522 0.1186063,0.0268 0.2350426,0.029452 0.3493325,0.00775 0.1142966,-0.02169 0.222935,-0.067459 0.3255616,-0.1374593 0.098147,-0.06624 0.1861955,-0.1585523 0.2640666,-0.2775024 0.078928,-0.1185849 0.1365647,-0.2571575 0.1731158,-0.4154786 0,0 0,-5.167e-4 0,-5.167e-4 C 5.9844439,4.3040329 5.973668,4.0478985 5.8807778,3.8416259 5.7889806,3.635466 5.6231451,3.5047017 5.3836506,3.4494017 5.2547797,3.4195019 5.135536,3.4168167 5.0255331,3.4406168 c -0.1088602,0.02421 -0.2192346,0.062672 -0.3312459,0.1162719 0,0 0.04588,-0.2135897 -0.00568,-0.2986897 C 4.5882247,3.0924989 4.3542561,3.0204875 4.3542561,3.0204875 Z M 2.3476603,3.1248739 c 0,0 -0.6739795,0.1047141 -0.6676595,0.357084 0.016138,0.64516 -0.3059245,1.6887859 -0.3059245,1.6887859 0,0 -0.51559031,-0.7796882 -0.55862222,-1.3658082 C 0.79674015,3.5501156 0.0738973,3.6116659 0.0738973,3.6116659 c 0,0 0.35927882,1.4914869 0.9549805,2.0655068 0.1843364,0.17761 0.6473147,0.1463114 0.7637776,-0.081649 C 2.2353208,4.7290439 2.3476603,3.1248739 2.3476603,3.1248739 Z M 4.81521,3.8364583 c 0.065843,-0.0042 0.127872,6.527e-4 0.1860351,0.013953 0.1379942,0.03181 0.2289643,0.097171 0.2733683,0.1963706 0.044405,0.09911 0.045185,0.2424012 0.00207,0.4294312 -0.044172,0.1915898 -0.1171821,0.3260928 -0.219108,0.4035927 -0.1016437,0.0762 -0.2343074,0.095478 -0.3973918,0.057878 -0.045618,-0.0106 -0.091329,-0.023057 -0.1369425,-0.038757 -0.045706,-0.0153 -0.087171,-0.035478 -0.1245401,-0.060978 L 4.6214233,3.8710814 c 0.063506,-0.0202 0.1282637,-0.031623 0.1937867,-0.034623 z"
  />
</svg>
